<?xml version="1.0" standalone="no"?>
<!DOCTYPE svg PUBLIC "-//W3C//DTD SVG 20010904//EN"
 "http://www.w3.org/TR/2001/REC-SVG-20010904/DTD/svg10.dtd">
<svg version="1.0" xmlns="http://www.w3.org/2000/svg"
 width="128.000000pt" height="128.000000pt" viewBox="0 0 128.000000 128.000000"
 preserveAspectRatio="xMidYMid meet">
<metadata>
Created by potrace 1.14, written by Peter Selinger 2001-2017
</metadata>
<g transform="translate(0.000000,128.000000) scale(0.100000,-0.100000)"
fill="#000000" stroke="none">
<path d="M475 1260 c3 -5 1 -10 -4 -10 -6 0 -11 -9 -11 -19 0 -11 -4 -23 -10
-26 -5 -3 -10 -12 -10 -19 0 -8 -10 -35 -22 -62 -12 -27 -21 -52 -20 -56 1 -5
-3 -8 -9 -8 -5 0 -7 -5 -4 -10 3 -6 -1 -17 -9 -26 -9 -8 -16 -26 -16 -40 0
-13 -4 -24 -10 -24 -5 0 -9 -3 -8 -7 0 -5 -2 -17 -7 -28 -4 -11 -19 -47 -32
-80 -13 -33 -35 -84 -49 -113 -13 -29 -24 -54 -24 -57 0 -2 -5 -16 -11 -32 -6
-15 -9 -28 -7 -28 1 0 -5 -11 -15 -25 -9 -13 -17 -32 -17 -42 0 -10 -5 -18
-11 -18 -6 0 -9 -9 -6 -20 3 -11 1 -20 -3 -20 -5 0 -14 -17 -21 -37 -6 -21
-16 -44 -22 -51 -5 -6 -6 -12 -1 -12 5 0 3 -4 -4 -8 -7 -5 -14 -18 -17 -30 -2
-12 -8 -29 -14 -39 -7 -14 -2 -28 25 -65 19 -27 34 -51 34 -54 0 -10 73 -119
82 -122 4 -2 8 -10 8 -18 0 -8 4 -14 9 -14 5 0 11 -8 13 -17 3 -17 34 -18 466
-19 274 0 465 3 469 9 3 5 -1 13 -8 18 -8 5 -10 9 -6 9 4 0 2 10 -5 22 -7 13
-13 25 -14 28 0 3 -4 12 -7 20 -4 8 -15 39 -25 67 -10 29 -22 50 -25 46 -4 -3
-7 3 -7 14 0 11 -6 33 -14 49 -17 33 -33 74 -35 89 -1 6 -9 20 -16 32 -8 12
-17 30 -18 40 -2 10 -14 41 -27 68 -12 28 -23 56 -23 63 0 6 -4 12 -9 12 -5 0
-8 6 -7 12 2 12 -7 35 -43 118 -6 14 -14 34 -18 45 -4 11 -13 34 -21 50 -7 17
-13 32 -14 35 -1 3 -8 21 -17 40 -8 19 -21 53 -29 75 -8 22 -18 43 -22 46 -5
3 -8 10 -8 15 1 17 -23 74 -32 74 -4 0 -6 4 -3 8 2 4 -2 23 -11 42 -24 54 -31
73 -38 96 -5 19 -13 21 -111 23 -70 1 -103 -2 -99 -9z m128 -572 c13 -29 39
-91 58 -138 19 -47 38 -88 43 -91 5 -4 5 -12 2 -18 -4 -6 -2 -11 5 -11 7 0 10
-3 6 -6 -3 -4 5 -26 18 -50 14 -24 22 -44 18 -44 -4 0 -2 -5 5 -12 7 -7 12
-19 12 -29 0 -14 -20 -16 -190 -15 -137 1 -192 4 -202 14 -9 9 -9 12 1 12 7 0
9 5 6 10 -3 6 -1 10 4 10 6 0 10 3 10 8 -3 14 14 72 21 72 4 0 12 19 19 42 7
23 20 52 28 65 8 13 12 23 8 23 -4 0 0 11 9 25 9 14 13 25 9 25 -5 0 -3 4 2 8
6 4 21 34 34 67 22 56 38 85 47 85 2 0 14 -24 27 -52z"/>
</g>
</svg>
