<?xml version="1.0" encoding="UTF-8"?>
<!DOCTYPE svg PUBLIC "-//W3C//DTD SVG 1.1//EN" "http://www.w3.org/Graphics/SVG/1.1/DTD/svg11.dtd">
<svg xmlns="http://www.w3.org/2000/svg" version="1.1" width="128px" height="128px" style="shape-rendering:geometricPrecision; text-rendering:geometricPrecision; image-rendering:optimizeQuality; fill-rule:evenodd; clip-rule:evenodd" xmlns:xlink="http://www.w3.org/1999/xlink">
<g><path style="opacity:0.921" fill="#1fac50" d="M 45.5,-0.5 C 52.8333,-0.5 60.1667,-0.5 67.5,-0.5C 76.5126,21.1959 85.6793,42.8626 95,64.5C 101.869,84.2462 109.869,103.58 119,122.5C 119.494,124.134 119.66,125.801 119.5,127.5C 87.5,127.5 55.5,127.5 23.5,127.5C 18.2731,118.725 12.7731,110.059 7,101.5C 6.33333,98.5 6.33333,95.5 7,92.5C 17.4517,69.6878 27.4517,46.6878 37,23.5C 40.1235,15.5897 42.9569,7.58966 45.5,-0.5 Z M 56.5,55.5 C 57.8036,56.9869 58.9702,58.6536 60,60.5C 64.0953,73.2869 69.2619,85.6202 75.5,97.5C 63.1802,98.6659 50.8468,98.8326 38.5,98C 44.3834,83.7391 50.3834,69.5724 56.5,55.5 Z"/></g>
</svg>
