<?xml version="1.0" encoding="UTF-8"?>
<!DOCTYPE svg PUBLIC "-//W3C//DTD SVG 1.1//EN" "http://www.w3.org/Graphics/SVG/1.1/DTD/svg11.dtd">
<svg xmlns="http://www.w3.org/2000/svg" version="1.1" width="682px" height="155px" style="shape-rendering:geometricPrecision; text-rendering:geometricPrecision; image-rendering:optimizeQuality; fill-rule:evenodd; clip-rule:evenodd" xmlns:xlink="http://www.w3.org/1999/xlink">
<g><path style="opacity:0.966" fill="#000000" d="M 349.5,-0.5 C 354.833,-0.5 360.167,-0.5 365.5,-0.5C 407.849,8.10293 430.849,34.1029 434.5,77.5C 432.951,109.802 417.951,133.302 389.5,148C 381.929,150.972 374.262,153.139 366.5,154.5C 359.833,154.5 353.167,154.5 346.5,154.5C 304.956,145.84 282.622,120.173 279.5,77.5C 282.969,33.377 306.302,7.37696 349.5,-0.5 Z M 349.5,33.5 C 376.126,31.887 392.959,43.887 400,69.5C 402.033,95.1272 390.866,111.961 366.5,120C 334.814,122.826 316.814,108.493 312.5,77C 315.038,53.9758 327.371,39.4758 349.5,33.5 Z"/></g>
<g><path style="opacity:0.965" fill="#000000" d="M -0.5,152.5 C -0.5,152.167 -0.5,151.833 -0.5,151.5C 20.1663,102.817 40.333,53.8172 60,4.5C 60.3742,3.58377 60.8742,2.75044 61.5,2C 65.6667,1.83333 69.8333,1.66667 74,1.5C 78.5894,1.5356 82.9228,2.20227 87,3.5C 106.89,52.9471 127.057,102.28 147.5,151.5C 98.1712,152.5 48.8378,152.833 -0.5,152.5 Z M 73.5,65.5 C 82.958,85.3392 91.958,105.506 100.5,126C 83.1571,126.833 65.8237,126.666 48.5,125.5C 56.4504,105.309 64.7837,85.3088 73.5,65.5 Z"/></g>
<g><path style="opacity:0.964" fill="#000000" d="M 153.5,1.5 C 173.531,1.1182 193.531,1.6182 213.5,3C 243.306,8.48268 262.806,25.6493 272,54.5C 279.078,82.4485 273.412,107.449 255,129.5C 242.962,141.604 228.462,149.104 211.5,152C 191.503,152.5 171.503,152.667 151.5,152.5C 150.845,101.95 151.512,51.6163 153.5,1.5 Z M 185.5,35.5 C 200.288,33.4054 213.955,36.2387 226.5,44C 243.795,62.1093 245.961,81.9427 233,103.5C 220.259,117.47 204.426,122.803 185.5,119.5C 185.5,91.5 185.5,63.5 185.5,35.5 Z"/></g>
<g><path style="opacity:0.963" fill="#000000" d="M 419.5,1.5 C 432.325,1.401 445.325,1.56766 458.5,2C 467.293,16.422 476.46,30.5887 486,44.5C 495.042,30.2482 504.209,16.0815 513.5,2C 526.846,1.16729 540.179,1.33396 553.5,2.5C 537.833,27.1667 522.167,51.8333 506.5,76.5C 522.5,101.5 538.5,126.5 554.5,151.5C 540.846,152.666 527.179,152.833 513.5,152C 504.458,137.416 495.292,122.916 486,108.5C 476.833,122.833 467.667,137.167 458.5,151.5C 444.512,152.666 430.512,152.833 416.5,152C 433.03,126.968 449.364,101.801 465.5,76.5C 450.249,52.3299 434.749,28.3299 419,4.5C 418.53,3.42317 418.697,2.42317 419.5,1.5 Z"/></g>
<g><path style="opacity:1" fill="#1ea94f" d="M 679.5,149.5 C 661.679,150.833 643.512,151.5 625,151.5C 606.428,151.494 587.928,151.16 569.5,150.5C 561.314,139.981 553.981,128.814 547.5,117C 563.48,78.0516 579.647,39.2183 596,0.5C 603.727,1.10004 611.727,1.7667 620,2.5C 639.941,51.4958 659.774,100.496 679.5,149.5 Z M 606.5,65.5 C 608.474,67.428 609.974,69.7613 611,72.5C 617.224,87.9489 623.724,103.282 630.5,118.5C 615.181,119.499 599.848,119.833 584.5,119.5C 591.277,101.279 598.61,83.2791 606.5,65.5 Z"/></g>
<g><path style="opacity:0.751" fill="#147135" d="M 679.5,149.5 C 680.167,150.167 680.833,150.833 681.5,151.5C 681.5,151.833 681.5,152.167 681.5,152.5C 643.818,153.16 606.485,152.494 569.5,150.5C 587.928,151.16 606.428,151.494 625,151.5C 643.512,151.5 661.679,150.833 679.5,149.5 Z"/></g>
</svg>
