<!--?xml version="1.0" encoding="utf-8"?-->
<!-- Svg Vector Icons : http://www.onlinewebfonts.com/icon -->

<svg version="1.1" xmlns="http://www.w3.org/2000/svg" xmlns:xlink="http://www.w3.org/1999/xlink" x="0px" y="0px" viewBox="0 0 256 256" enable-background="new 0 0 256 256" xml:space="preserve">
<metadata> Svg Vector Icons : http://www.onlinewebfonts.com/icon </metadata>
<g><g><path fill="#ffffff" data-title="Layer 0" xs="0" d="M128,246c-65.2,0-118-52.8-118-118C10,62.8,62.8,10,128,10c65.2,0,118,52.8,118,118C246,193.2,193.2,246,128,246z M128,12.9C64.4,12.9,13,64.5,13,128c0,63.6,51.5,115.1,115,115.1c29.5,0,56.4-11.1,76.7-29.3l0,0l0,0c23.5-21.1,38.3-51.7,38.3-85.7C243,64.5,191.5,12.9,128,12.9z M155.4,142.1c-0.3,0.2-0.5,0.5-0.8,0.7v-1v-3v-0.5c0.1,0,0.2,0.1,0.3,0.1c8.8-7.6,14.3-18.7,14.3-31.2c0-22.8-18.5-41.3-41.3-41.3c-22.8,0-41.3,18.5-41.3,41.3c0,12.5,5.6,23.6,14.3,31.2c0.1,0,0.2-0.1,0.4-0.1v0.5v3v1c-0.3-0.2-0.6-0.5-0.8-0.7c-28.8,11.1-49.3,38.8-49.3,71.5c0,0,0,0.1,0,0.1c-1-0.9-1.9-1.8-2.8-2.6c0.9-32.3,21-59.7,49.3-71.3c-8.6-8.1-14.1-19.5-14.1-32.3c0-24.4,19.8-44.3,44.3-44.3s44.3,19.8,44.3,44.3c0,12.7-5.4,24.2-14.1,32.3c28.3,11.6,48.4,39,49.3,71.3c-0.9,0.9-1.9,1.8-2.8,2.6l0,0c0,0,0-0.1,0-0.1C204.7,180.9,184.2,153.1,155.4,142.1z"/></g></g>
</svg>